<svg width="1000" height="1000" viewBox="0 0 1000 1000" fill="none" xmlns="http://www.w3.org/2000/svg">
<rect width="1000" height="1000" fill="#071E25"/>
<path d="M255.175 729.985L253.239 737.748L261.065 736.084L429.596 700.262L437.422 698.599L439.357 690.836L459.864 608.588L461.799 600.825L453.974 602.489L411.015 611.62L403.19 613.283L401.254 621.046L393.531 652.023L326.567 666.257L385.202 431.088C390.813 408.582 413.755 386.427 436.444 381.604L462.325 376.103L418.691 551.11C413.614 571.474 426.139 584.444 446.668 580.081L492.412 570.358L463.661 685.67L461.726 693.432L469.551 691.769L592.48 665.64C623.813 658.98 655.495 628.385 663.244 597.304L744.766 270.337L746.702 262.574L738.876 264.238L567.04 300.763L559.215 302.426L557.28 310.188L536.401 393.927L534.466 401.689L542.291 400.026L585.851 390.767L593.676 389.103L595.612 381.341L604.45 345.893L673.516 331.213L614.882 566.381C609.27 588.888 586.328 611.043 563.639 615.866L535.655 621.814L577.729 453.064C582.806 432.701 570.281 419.73 549.752 424.094L503.407 433.945L532.975 315.354L534.91 307.592L527.085 309.255L407.461 334.682C376.128 341.342 344.446 371.937 336.697 403.018L255.175 729.985Z" fill="#E7FF53" stroke="#071E25" stroke-width="16"/>
<path d="M473.802 525.338L484.13 483.916L526.789 474.848L516.461 516.271L473.802 525.338Z" fill="#071E25" stroke="#071E25" stroke-width="5"/>
</svg>
